<?xml version="1.0" encoding="utf-8"?>
<svg viewBox="0 0 500 500" xmlns="http://www.w3.org/2000/svg">
  <rect style="fill: rgb(101, 245, 189);" x="67.623" y="87.024" width="369.574" height="352.239" rx="45" ry="45"/>
  <g transform="matrix(0.21328, 0, 0, -0.268738, 49.949352, 528.690796)" fill="#000000" stroke="none" style="">
    <path d="M530 655 l0 -315 44 0 c53 0 53 0 51 158 l-2 112 89 0 88 0 0 -135 0 -135 44 0 c34 0 46 4 49 18 4 15 2 565 -2 600 0 7 -17 12 -46 12 l-45 0 0 -135 0 -135 -88 0 -89 0 2 113 c2 157 2 157 -51 157 l-44 0 0 -315z"/>
    <path d="M980 654 l0 -315 48 3 47 3 0 133 0 132 113 0 112 0 0 44 c0 39 3 45 23 48 21 3 22 8 24 91 3 87 3 87 -22 87 -23 0 -25 4 -25 45 l0 45 -160 0 -160 0 0 -316z m270 136 l0 -90 -87 0 -88 0 0 90 0 90 88 0 87 0 0 -90z"/>
    <path d="M1430 655 l0 -315 50 0 50 0 0 135 0 135 110 0 c121 0 116 -3 110 68 -1 17 4 22 24 22 l26 0 0 90 0 90 -26 0 c-20 0 -25 5 -24 23 6 72 17 67 -160 67 l-160 0 0 -315z m272 180 c2 -25 2 -65 0 -90 l-4 -45 -84 0 -84 0 0 90 0 90 84 0 84 0 4 -45z"/>
  </g>
</svg>